# xmcd
#
# Track frame offsets:
#	150
#	23404
#	37299
#	59518
#	77136
#	95468
#	117032
#	134357
#	153320
#	168227
#	184327
#	200519
#	216125
#	233510
#
# Disc length: 3366
#
# Revision: 2
# Processed by: cddbd v1.5.1PL0 Copyright (c) Steve Scherf et al.
# Submitted via: dBpowerAMP V4.0
# Normalized: r0:DSETVAR2,TDELIM( - ),TSWAP
#
DISCID=b80d240e
DTITLE=Various Artist - Elton John and John Lennon
DYEAR=1900
DGENRE=Blues
TTITLE0=Elton John - Sacrifice
TTITLE1=John Lennon - Imagine
TTITLE2=Elton John - Nikita
TTITLE3=John Lennon - Mother
TTITLE4=Elton John - You Sotta
TTITLE5=John Lennon - 9 Dream
TTITLE6=Elton John - Skiline Pigeon
TTITLE7=John Lennon - Mind Games
TTITLE8=Elton John - Goodbye Yellow Brick Road
TTITLE9=John Lennon - Happy Xmas
TTITLE10=Elton John - Cold
TTITLE11=John Lennon - Stand By Me
TTITLE12=Elton John - Candle in the Wind
TTITLE13=John Lennon - Jealous Suy
EXTD=
EXTT0=
EXTT1=
EXTT2=
EXTT3=
EXTT4=
EXTT5=
EXTT6=
EXTT7=
EXTT8=
EXTT9=
EXTT10=
EXTT11=
EXTT12=
EXTT13=
PLAYORDER=
